- 
http://www.Speed.Cd 
       
http://www.Speed.Cd      fast  and The Hottest Private Tracker on the net

(((--Submit for invite!!--)))

Please Seed back to make the speed Faster!!!

------------------nfo--------------------------
-[img]http://img8.imageshack.us/img8/6033/popperst.jpg[/img]

Mr.Poppers.Penguins.2011.BRRip.XviD.AC3-EMBER
 
http://www.imdb.com/title/tt1396218

Plot:
Tom Popper grew up having very little interaction with his father who was off exploring the world. When he grows up 
he spends most of time on his work and ignores his children

Source                           : BluRay.1080p.x264.DTS-HDC Thanks

General
Format                           : AVI
Format/Info                      : Audio Video Interleave
File size                        : 1.38 GiB
Duration                         : 1h 34mn
Overall bit rate                 : 2 088 Kbps
Writing application              : VirtualDubMod 1.5.10.2 (build 2540/release)
Writing library                  : VirtualDubMod build 2540/release

Video
ID                               : 0
Format                           : MPEG-4 Visual
Format profile                   : Advanced Simple@L5
Format settings, BVOP            : 2
Format settings, QPel            : No
Format settings, GMC             : No warppoints
Format settings, Matrix          : Default (H.263)
Muxing mode                      : Packed bitstream
Codec ID                         : XVID
Codec ID/Hint                    : XviD
Duration                         : 1h 34mn
Bit rate                         : 1 695 Kbps
Width                            : 720 pixels
Height                           : 384 pixels
Display aspect ratio             : 1.875
Frame rate                       : 23.976 fps
Color space                      : YUV
Chroma subsampling               : 4:2:0
Bit depth                        : 8 bits
Scan type                        : Progressive
Compression mode                 : Lossy
Bits/(Pixel*Frame)               : 0.256
Stream size                      : 1.12 GiB (81%)
Writing library                  : XviD 64

Audio
ID                               : 1
Format                           : AC-3
Format/Info                      : Audio Coding 3
Mode extension                   : CM (complete main)
Codec ID                         : 2000
Duration                         : 1h 34mn
Bit rate mode                    : Constant
Bit rate                         : 384 Kbps
Channel(s)                       : 6 channels
Channel positions                : Front: L C R, Side: L R, LFE
Sampling rate                    : 48.0 KHz
Bit depth                        : 16 bits
Compression mode                 : Lossy
Stream size                      : 259 MiB (18%)
Alignment                        : Split accross interleaves
Interleave, duration             : 42 ms (1.00 video frame)
Interleave, preload duration     : 500 ms

Notes
Used the 1080p for my encode, not great deal done

Screens
[img]http://img571.imageshack.us/img571/3364/56680094.png[/img]
[img]http://img97.imageshack.us/img97/8820/82658642.png[/img]
[img]http://img828.imageshack.us/img828/4813/55143402.png[/img]
[img]http://img560.imageshack.us/img560/5574/81264544.png[/img]


Greetz to 
SHiRK, SHK, LKRG, UnKnOwN, IMAGiNE, SiC, BHRG, TaRiQ786, FLAWL3SS, Rx, Hive-CM8

And to all other groups past and present

Got something to offer?

ember@hushmail.me